<svg version="1.2" xmlns="http://www.w3.org/2000/svg" viewBox="0 201.24437119200024 1536 564.7556288079998" width="1536" height="565">
	<style>
		tspan { white-space:pre } 
		.s0 { fill: #1a2735 } 
		.s1 { fill: #3b444f } 
		.s2 { fill: #ec652a } 
		.s3 { fill: #faf6f3 } 
		.s4 { fill: #071321 } 
		.s5 { fill: #182432 } 
		.s6 { fill: #eb6326 } 
		.s7 { fill: #192533 } 
		.s8 { fill: #636a76 } 
		.s9 { fill: #f9f8f7 } 
		.s10 { fill: #eb6327 } 
		.s11 { fill: #1a2632 } 
		.s12 { fill: #ec6528 } 
		.s13 { fill: #192532 } 
		.s14 { fill: #f2b48e } 
		.s15 { fill: #f9f7f6 } 
		.s16 { fill: #ee8453 } 
		.s17 { fill: #727a85 } 
		.s18 { fill: #ec652b } 
		.s19 { fill: #bbbec3 } 
		.s20 { fill: #787f89 } 
		.s21 { fill: #ed6026 } 
		.s22 { fill: #ee662b } 
		.s23 { fill: #676d74 } 
		.s24 { fill: #595f69 } 
		.s25 { fill: #37434c } 
		.s26 { fill: #eb692e } 
		.s27 { fill: #ec6125 } 
		.s28 { fill: #ee9267 } 
		.s29 { fill: #ec6327 } 
		.s30 { fill: #eb6025 } 
		.s31 { fill: #525253 } 
		.s32 { fill: #535354 } 
		.s33 { fill: #4c4d4e } 
		.s34 { fill: #525354 } 
		.s35 { fill: #565657 } 
		.s36 { fill: #868787 } 
		.s37 { fill: #f4f4f4 } 
		.s38 { fill: #555555 } 
		.s39 { fill: #545455 } 
		.s40 { fill: #565758 } 
		.s41 { fill: #404143 } 
		.s42 { fill: #444548 } 
		.s43 { fill: #515152 } 
		.s44 { fill: #bababc } 
		.s45 { fill: #515253 } 
		.s46 { fill: #ececec } 
		.s47 { fill: #f5f5f5 } 
		.s48 { fill: #adaeaf } 
		.s49 { fill: #595959 } 
		.s50 { fill: #f2f2f2 } 
		.s51 { fill: #a1a3a4 } 
		.s52 { fill: #edeeee } 
		.s53 { fill: #78797a } 
		.s54 { fill: #545556 } 
		.s55 { fill: #4c5661 } 
		.s56 { fill: #faab41 } 
		.s57 { fill: #1e2937 } 
	</style>
	<g>
	</g>
	<g>
		<path fill-rule="evenodd" class="s0" d="m51.51 615.38q-2.56-158.72-1.71-318.31 2.11-29.96 30.81-40.21 147.17-1.72 294.34 0 28.59 8.91 33.37 38.5 1.72 168.56 0 337.13-3.62 4.91-9.41 6.84-2.14-170.27-2.57-340.55-4.43-24.11-28.23-29.95-139.47-1.71-278.95 0-19.65 4.25-26.52 23.11-0.86 160-1.71 320.01-4.43 2.48-9.42 3.43z"/>
	</g>
	<g>
		<path fill-rule="evenodd" class="s1" d="m49.8 297.07q-0.85 159.59 1.71 318.31-0.15 1.39-1.71 1.71-3.42-160.44 0-320.02z"/>
	</g>
	<g>
		<path fill-rule="evenodd" class="s2" d="m279.12 331.3q40.79-3.26 47.92 36.79-1.42 14.4-9.42 26.53-13.61 22.59-28.23 44.49-20.33-29.52-36.8-61.61-4.51-33.51 26.53-46.2z"/>
	</g>
	<g>
		<path fill-rule="evenodd" class="s3" d="m284.25 350.12q25.46 1.04 21.39 25.67-7.49 14.18-23.1 9.41-24.71-18.81 1.71-35.08z"/>
	</g>
	<g>
		<path fill-rule="evenodd" class="s4" d="m672.72 372.37q0 12.83 0 25.67-42.78 0-85.56 0 40.63-2.13 82.14-2.57-3.42-4.72 0.85-2.57 1.28-9.37 0.86-18.82-57.33 0-114.66 0 0.85 77.45-1.71 154.02 0-77.87 0-155.73 59.04 0 118.08 0z"/>
	</g>
	<g>
		<path fill-rule="evenodd" class="s5" d="m587.16 398.04q0 0.85 0 1.71 0 17.97 0 35.94 39.36 0 78.72 0 0.82 14.18-1.72 27.38-38.5 0-77 0 0 18.82 0 37.65 43.18 2.56 87.27 1.71 0 13.69 0 27.38-59.89 0-119.79 0 0-0.86 0-1.71 2.56-76.57 1.71-154.02 57.33 0 114.66 0 0.42 9.45-0.86 18.82-4.27-2.15-0.85 2.57-41.51 0.44-82.14 2.57z"/>
	</g>
	<g>
		<path fill-rule="evenodd" class="s6" d="m977.33 372.37q45.36-0.43 90.7 0.85 65.93 15.06 40.22 77.87-10.42 15.71-28.24 22.25 20.85 27.58 41.07 55.61-19.73 2.14-39.36-0.85-18.91-24.57-35.93-50.49-17.09-1.28-34.23-0.85 0 26.52 0 53.05-17.11 0-34.23 0 0-78.72 0-157.44z"/>
	</g>
	<g>
		<g id="&lt;Group&gt;">
			<path fill-rule="evenodd" class="s7" d="m190.13 392.9q19.67 8.98 37.65 20.54 5.58 0.64 8.56 5.13 46.01 24.16 91.55 49.63 1.29 86.42 0.86 172.84-141.45-3.12-282.37 10.27-13.33 0.83-25.67-1.71 19.7-8.7 41.07-12.83 119-23.42 239.59-11.13 0.85-72.75-1.72-145.46-32.23-17.39-63.31-35.94-13.63-6.81-27.38-13.69 0 88.99 0 177.98-38.56-0.54-77.01 1.71-0.85-71.64 1.71-142.89 22.27-12.85 42.78-28.24 3.42 14.55 0 29.09-8.76 6.31-17.97 11.98-1.28 56.47-0.85 112.95 14.54 0 29.09 0 1.71-100.11 3.42-200.23z"/>
			<path fill-rule="evenodd" class="s7" d="m232.91 420.29q6.63 5.68 0 11.12 6.63-5.44 0-11.12z"/>
			<path fill-rule="evenodd" class="s7" d="m232.91 431.41q2.6 4.22 5.14 5.99-2.54-1.77-5.14-5.99z"/>
			<path fill-rule="evenodd" class="s7" d="m238.05 437.4q-0.89 3.46-1.71 6.84 0.82-3.38 1.71-6.84z"/>
		</g>
	</g>
	<g>
		<path fill-rule="evenodd" class="s8" d="m672.72 372.37q0.86 0 1.71 0 0 13.69 0 27.38-43.64 0-87.27 0 0-0.86 0-1.71 42.78 0 85.56 0 0-12.84 0-25.67z"/>
	</g>
	<g>
		<path fill-rule="evenodd" class="s9" d="m1011.56 399.75q24.83-0.43 49.63 0.86 31.45 9.45 15.4 38.5-5.12 5.13-11.98 7.7-26.36 3.59-53.05 2.57 0-24.82 0-49.63z"/>
	</g>
	<g>
		<path fill-rule="evenodd" class="s10" d="m1187.83 408.31q73.21-1.23 70.16 71.87-47.07-0.43-94.12 0.86 6.2 20.74 27.38 25.67 23.64 3 41.93-12.84 8.98 8.99 17.96 17.97-14.68 15.47-35.93 18.83-43.18 8.99-72.73-23.11-31.83-61.65 28.23-94.98 8.96-1.89 17.12-4.27z"/>
	</g>
	<g>
		<path fill-rule="evenodd" class="s11" d="m816.47 413.44q17.57-3.39 35.94 0 16.42 38.83 34.22 77.01 16.76-38.27 32.52-77.01 17.11-3.42 34.23 0-31.24 69.31-62.47 138.62-15.21 21.23-41.92 20.53-9.49-0.72-18.83-2.56-6.71-2.05-10.27-7.71 3.17-12.06 10.27-22.24 16.67 10.18 33.37 0 4.47-5.68 5.99-12.84-24.89-57.9-53.05-113.8z"/>
	</g>
	<g>
		<path fill-rule="evenodd" class="s12" d="m1312.75 411.73q-0.8 7.05 1.71 13.69 1.56-0.32 1.71-1.71 27.32-24.37 61.61-9.41 21.56 11.82 23.1 36.79 1.29 39.35 0.86 78.72-16.26 0-32.52 0 1.08-40.34-2.56-80.43-15.52-21.93-40.22-9.41-7.52 5.8-11.12 14.54-1.29 37.64-0.86 75.3-16.26 0-32.51 0 0-59.04 0-118.08 15.4 0 30.8 0z"/>
	</g>
	<g>
		<path fill-rule="evenodd" class="s13" d="m739.46 500.72q-1.39 0.15-1.71 1.71 34.18 2.56 68.45 1.71 0 12.83 0 25.67-56.47 0-112.94 0-1.7-14.56 4.27-27.38 30.13-30.4 59.05-61.61 1.39-0.15 1.71-1.71-30.76-2.56-61.61-1.71 0-12.84 0-25.67 53.91 0 107.81 0 0.43 11.15-0.85 22.25-31.75 33.88-64.18 66.74z"/>
	</g>
	<g>
		<path fill-rule="evenodd" class="s14" d="m1312.75 411.73q1.71 5.99 3.42 11.98-0.15 1.39-1.71 1.71-2.51-6.64-1.71-13.69z"/>
	</g>
	<g>
		<path fill-rule="evenodd" class="s15" d="m1192.96 432.26q23.08-1.25 33.37 18.83 1.26 4.19 0.86 8.56-31.68 0.42-63.32-0.86 6.15-22.72 29.09-26.53z"/>
	</g>
	<g>
		<path fill-rule="evenodd" class="s16" d="m1471.9 411.73q17.12 0 34.23 0 0 12.83 0 25.67-8.56 0-17.11 0 7.16-2.51 15.4-1.71 0-11.13 0-22.25-16.75 0.83-32.52-1.71z"/>
	</g>
	<g>
		<path fill-rule="evenodd" class="s17" d="m696.68 437.4q30.85-0.85 61.61 1.71-0.32 1.56-1.71 1.71-29.95-1.71-59.9-3.42z"/>
	</g>
	<g>
		<path fill-rule="evenodd" class="s18" d="m1471.9 411.73q15.77 2.54 32.52 1.71 0 11.12 0 22.25-8.24-0.8-15.4 1.71-8.56 0-17.12 0-0.43 30.82 0.86 61.61 12.19 11.66 27.38 3.42 5.24 11.06 7.7 23.1-23.21 9.72-47.92 3.42-16.5-7.09-19.68-24.81-1.28-33.36-0.85-66.74-10.27 0-20.54 0 0-12.84 0-25.67 10.27 0 20.54 0 0-15.4 0-30.8 15.4 0 30.8 0-0.82 15.89 1.71 30.8z"/>
	</g>
	<g>
	</g>
	<g>
		<path fill-rule="evenodd" class="s19" d="m664.16 463.07q-37.19 2.55-75.29 1.71 0 17.97 0 35.94-0.86 0-1.71 0 0-18.83 0-37.65 38.5 0 77 0z"/>
	</g>
	<g>
	</g>
	<g>
		<path fill-rule="evenodd" class="s20" d="m674.43 372.37q-0.85 0-1.71 0-59.04 0-118.08 0 0 77.86 0 155.73 0 0.85 0 1.71-2.56-79.14-1.71-159.15 61.19-0.85 121.5 1.71z"/>
	</g>
	<g>
		<path fill-rule="evenodd" class="s21" d="m234.63 497.29q7.7 0 15.4 0 0 6.85 0 13.7-7.7 0-15.4 0 0-6.85 0-13.7z"/>
	</g>
	<g>
		<path fill-rule="evenodd" class="s22" d="m256.87 497.29q7.7 0 15.4 0 0 6.85 0 13.7-7.7 0-15.4 0 0-6.85 0-13.7z"/>
	</g>
	<g>
		<path fill-rule="evenodd" class="s23" d="m587.16 500.72q0.85 0 1.71 0 43.63 0 87.27 0 0.83 15.04-1.71 29.09 0-13.69 0-27.38-44.09 0.85-87.27-1.71z"/>
	</g>
	<g>
		<path fill-rule="evenodd" class="s24" d="m739.46 500.72q33.77 2.55 68.45 1.71 0.83 14.18-1.71 27.38 0-12.84 0-25.67-34.27 0.85-68.45-1.71 0.32-1.56 1.71-1.71z"/>
	</g>
	<g>
		<path fill-rule="evenodd" class="s25" d="m190.13 392.9q-1.71 100.12-3.42 200.23-0.86-100.98 1.71-201.94 1.56 0.32 1.71 1.71z"/>
	</g>
	<g>
		<path fill-rule="evenodd" class="s26" d="m234.63 516.12q7.7 0 15.4 0 0 6.84 0 13.69-7.7 0-15.4 0 0-6.85 0-13.69z"/>
	</g>
	<g>
		<path fill-rule="evenodd" class="s27" d="m270.56 516.12q0 5.99 0 11.98-6.84 0-13.69 0 0-5.99 0-11.98 6.85 0 13.69 0z"/>
	</g>
	<g>
		<path fill-rule="evenodd" class="s28" d="m270.56 516.12q2.5 6.28 1.71 13.69-8.24 0.8-15.4-1.71 6.85 0 13.69 0 0-5.99 0-11.98z"/>
	</g>
	<g>
		<path fill-rule="evenodd" class="s29" d="m234.63 534.94q7.7 0 15.4 0 0 6.85 0 13.69-7.7 0-15.4 0 0-6.84 0-13.69z"/>
	</g>
	<g>
		<path fill-rule="evenodd" class="s30" d="m256.87 534.94q7.7 0 15.4 0 0 6.85 0 13.69-7.7 0-15.4 0 0-6.84 0-13.69z"/>
	</g>
	<g>
		<path fill-rule="evenodd" class="s31" d="m843.85 584.57q10.23 0.33 6.85 9.41-12.25 2.08-6.85-9.41z"/>
	</g>
	<g>
		<path fill-rule="evenodd" class="s32" d="m1001.29 603.4q-0.15-1.4-1.71-1.72-2.56 18.75-1.71 37.65-2.57 0-5.13 0 0.68-4.1-1.72-6.84 0-22.25 0-44.5 5.89-0.65 11.13 1.72 9.25 17.65 17.11 35.93 9.26-17.66 17.11-35.93 5.24-2.37 11.13-1.72 0 26.53 0 53.05-4.28 0-8.56 0 0.43-18.84-0.85-37.64-8.75 17.46-14.55 35.93-4.22 0.55-7.7-1.71-7.54-17.07-14.55-34.22z"/>
	</g>
	<g>
		<path fill-rule="evenodd" class="s33" d="m843.85 601.68q3.42 0 6.85 0 0 19.68 0 39.36-3.43 0-6.85 0 0-19.68 0-39.36z"/>
	</g>
	<g>
		<path fill-rule="evenodd" class="s34" d="m1196.38 623.93q-15.5-0.84-30.8 1.71 0.32 1.56 1.71 1.71 9.11 11.7 22.25 3.43 9.73 5.51-1.71 9.41-34.52 6.56-28.24-28.24 2.99-6.41 9.41-9.41 26.9-5.83 27.38 21.39z"/>
	</g>
	<g>
		<path fill-rule="evenodd" class="s35" d="m813.05 591.42q4.28 0 8.55 0 0 5.13 0 10.26 5.14 0 10.27 0 0 3.43 0 6.85-5.13 0-10.27 0-0.42 12.01 0.86 23.96 4.36 2.32 9.41 1.71 0.44 3.39-1.71 5.99-10.99 3.74-16.26-5.99-1.28-12.81-0.85-25.67-3.42 0-6.85 0 0-3.42 0-6.85 3.43 0 6.85 0 0-5.13 0-10.26z"/>
	</g>
	<g>
		<path fill-rule="evenodd" class="s36" d="m771.98 605.11q-0.16 1.39-1.71 1.71-2.63-3.47-6.85-3.42 0 17.96 0 35.93 2.57 0 5.13 0-0.81-11.63 1.72-22.24 0 11.98 0 23.95-4.28 0-8.56 0 0-19.68 0-39.36 6.12-0.61 10.27 3.43z"/>
	</g>
	<g>
		<path fill-rule="evenodd" class="s37" d="m1187.83 615.38q-10.27 3.42-20.54 0 2.26-7.16 10.27-6.85 7.83-0.38 10.27 6.85z"/>
	</g>
	<g>
		<path fill-rule="evenodd" class="s38" d="m1068.03 601.68q9.45-0.42 18.83 0.86 2.99 3 5.99 5.99 1.28 16.24 0.85 32.51-5.11 0.45-8.55-3.42-13.87 8.11-24.82-3.42-2.88-8.87 4.28-14.55 10.78-3.51 22.25-2.56 0.52-4.86-3.42-7.7-9.61-1.29-18.83 0-1.17-1.07-1.71-2.57 2.16-3.17 5.13-5.14z"/>
		<text id="" style="transform: matrix(1.711,0,0,1.711,1264.834,112.25)">
		</text>
	</g>
	<g>
		<path fill-rule="evenodd" class="s39" d="m1287.08 601.68q8.6-0.42 17.11 0.86 3.68 1.19 5.99 4.28 3.65 16.81 2.57 34.22-5.82 0.93-9.41-3.42-12.81 7.6-23.96-1.71-3.54-11.29 5.99-17.97 9.37-1.28 18.82-0.85 0.53-4.86-3.42-7.7-8.96-2.58-16.26 2.56-5.51-6.93 2.57-10.27z"/>
	</g>
	<g>
		<path fill-rule="evenodd" class="s35" d="m866.1 601.68q5.11-0.44 8.56 3.43 11.46-6.77 23.1 0 3.66 17.67 2.57 35.93-3.43 0-6.85 0 0.43-13.71-0.86-27.38-10.68-10.9-18.82 1.72-1.28 12.8-0.86 25.66-3.42 0-6.84 0 0-19.68 0-39.36z"/>
	</g>
	<g>
		<path fill-rule="evenodd" class="s40" d="m922.57 601.68q11.33-1.22 21.39 3.43 3.6-4.35 9.42-3.43 1.06 23.32-2.57 46.21-7.22 10.24-19.68 8.56-12.58 2.89-14.55-8.56 3.87-2.66 7.7 0.86 9.51 2.06 17.97-2.57 6.92-12.08-4.28-7.7-29.51 3.09-24.81-26.53 3.49-6.47 9.41-10.27z"/>
	</g>
	<g>
		<path fill-rule="evenodd" class="s37" d="m925.99 608.53q21.3-3.76 17.97 17.11-8.61 11.42-20.53 3.43-6.01-11.42 2.56-20.54z"/>
	</g>
	<g>
		<path fill-rule="evenodd" class="s41" d="m552.93 613.66q40.25-0.85 80.43 1.72-20.11 0.85-40.22 1.71-21.03-0.01-40.21-3.43z"/>
	</g>
	<g>
		<path fill-rule="evenodd" class="s42" d="m1427.41 613.66q40.25-0.85 80.43 1.72-20.11 0.85-40.22 1.71-21.04-0.01-40.21-3.43z"/>
	</g>
	<g>
		<path fill-rule="evenodd" class="s43" d="m770.27 617.09q-2.53 10.61-1.72 22.24-2.56 0-5.13 0 0-17.97 0-35.93 4.22-0.05 6.85 3.42 1.55-0.32 1.71-1.71 13.67-8.13 24.81 3.42 1.28 16.24 0.86 32.51-3.43 0-6.85 0 1.04-14.86-2.57-29.09-12.29-8.44-17.96 5.14z"/>
	</g>
	<g>
		<path fill-rule="evenodd" class="s44" d="m1167.29 615.38q10.27 3.42 20.54 0 1.39 0.15 1.71 1.71-11.98 3.42-23.96 0 0.32-1.56 1.71-1.71z"/>
	</g>
	<g>
		<path fill-rule="evenodd" class="s39" d="m1329.86 601.68q9.45-0.42 18.83 0.86 9.91 3.45 0 7.7-7.55-2.76-15.4-0.85-3.15 4.07 1.71 6.84 10.01 1.74 17.97 7.7 4.42 18.27-14.55 17.11-9.5 1.23-15.4-5.98 2.9-7.24 8.56-1.72 6.79 1.28 13.69 0.86 0.67-3.79-1.72-6.85-9.49-3.24-17.96-8.55-2.93-10.07 4.27-17.12z"/>
	</g>
	<g>
		<path fill-rule="evenodd" class="s45" d="m749.73 615.38q0 4.27 0 8.55-15.04-0.83-29.09 1.71 0.92 4.81 5.13 7.7 9.94 2.29 18.83-2.56 7.11 7.16-3.43 9.41-31.66 5.12-28.23-26.53 8.19-17 26.52-11.12 8.52 3.8 10.27 12.84z"/>
	</g>
	<g>
		<path fill-rule="evenodd" class="s46" d="m725.77 608.53q14.42-3.69 17.11 10.27-12.1 0.84-23.95-1.71 3.48-4.33 6.84-8.56z"/>
	</g>
	<g>
		<path fill-rule="evenodd" class="s43" d="m664.16 587.99q14.57-0.42 29.1 0.86 12.64 6.04 9.41 19.68-3.64 7.18-11.12 10.27 6.84 10.27 13.69 20.53-5.14 3.43-10.27 0-5.67-10.05-11.98-19.68-5.07-1.27-10.27-0.85 0 11.12 0 22.24-4.28 0-8.56 0 0-26.52 0-53.05z"/>
	</g>
	<g>
		<path fill-rule="evenodd" class="s47" d="m672.72 594.84q8.6-0.42 17.11 0.86 10.27 7.7 0 15.4-8.51 1.28-17.11 0.85 0-8.55 0-17.11z"/>
	</g>
	<g>
		<path fill-rule="evenodd" class="s48" d="m749.73 615.38q2.47 4.53 1.71 10.26-15.4 0-30.8 0 14.05-2.54 29.09-1.71 0-4.28 0-8.55z"/>
	</g>
	<g>
		<path fill-rule="evenodd" class="s49" d="m1138.2 584.57q4.28 0 8.55 0 0 28.24 0 56.47-5.95 0.7-10.26-3.42-19 9.82-29.95-8.55-3.49-35.66 29.95-23.96 2.54-10.13 1.71-20.54z"/>
	</g>
	<g>
		<path fill-rule="evenodd" class="s50" d="m1121.08 608.53q20.1-2.58 16.26 17.11-6.55 13.16-19.68 5.99-10.45-13.5 3.42-23.1z"/>
	</g>
	<g>
		<path fill-rule="evenodd" class="s51" d="m1196.38 623.93q-14.54 1.71-29.09 3.42-1.39-0.15-1.71-1.71 15.3-2.55 30.8-1.71z"/>
	</g>
	<g>
		<path fill-rule="evenodd" class="s52" d="m1288.79 623.93q7.7 0 15.4 0-3.02 17.14-17.96 8.56-1.57-5.12 2.56-8.56z"/>
		<path id="Layer copy" fill-rule="evenodd" class="s52" d="m1069.79 623.93q7.7 0 15.4 0-3.02 17.14-17.96 8.56-1.57-5.12 2.56-8.56z"/>
	</g>
	<g>
		<path fill-rule="evenodd" class="s53" d="m1001.29 603.4q-2.54 18.34-1.71 37.64-4.28 0-8.56 0 0-4.27 0-8.55 2.4 2.74 1.72 6.84 2.56 0 5.13 0-0.85-18.9 1.71-37.65 1.56 0.32 1.71 1.72z"/>
		<text id="" style="transform: matrix(1.711,0,0,1.711,4.454,238.031)">
		</text>
	</g>
	<g>
		<path fill-rule="evenodd" class="s54" d="m1360.67 601.68q4.21-0.54 7.7 1.72 6.69 12.52 11.98 25.67 6.84-13.27 11.12-27.39 4.59-0.73 8.56 1.72-10.83 25.51-22.25 50.48-6.5 3.65-13.69 1.71-2.15-2.59-1.71-5.99 10.98 1.81 13.69-8.56-8.45-19.46-15.4-39.36z"/>
	</g>
	<g>
		<path fill-rule="evenodd" class="s31" d="m1232.32 587.99q17.97 0 35.94 0 0 3.43 0 6.85-13.69 0-27.38 0 0 7.7 0 15.4 12.83 0 25.67 0 0 3.42 0 6.85-12.84 0-25.67 0 0 8.55 0 17.11 14.54 0 29.09 0 0 3.42 0 6.84-18.83 0-37.65 0 0-26.52 0-53.05z"/>
	</g>
	<g>
		<path fill-rule="evenodd" class="s55" d="m20.71 649.6q12.34 2.54 25.67 1.71-13.3 3.38-27.38 0 0.32-1.56 1.71-1.71z"/>
	</g>
	<g>
		<path fill-rule="evenodd" class="s56" d="m248.32 653.02q86.06-1.53 171.13 11.13 9.01 1.08 17.11 5.13-86.84-0.87-173.7-2.57-75.78 0.93-151.45 2.57 68.35-12.07 136.91-16.26z"/>
	</g>
	<g>
		<path fill-rule="evenodd" class="s57" d="m48.09 666.71q6.85 0 13.69 0-0.98 18.2 2.57 35.94 7.12 16.53 24.81 19.68 139.48 1.71 278.95 0 29.74-7.68 27.38-38.5 5.99 0 11.98 0 2.17 41.49-37.65 52.19-141.18 1.71-282.37 0-32.25-7.44-38.5-40.21-1.28-14.52-0.86-29.1z"/>
		<text id="" transform="translate(984,460)">
		</text>
	</g>
</svg>